<svg data-v-0dd9719b="" version="1.0" xmlns="http://www.w3.org/2000/svg" xmlns:xlink="http://www.w3.org/1999/xlink" width="100%" height="100%" viewBox="0 0 340.000000 250.000000" preserveAspectRatio="xMidYMid meet" color-interpolation-filters="sRGB" style="margin: auto;"> <rect data-v-0dd9719b="" x="0" y="0" width="100%" height="100%" fill="#fff" fill-opacity="1" class="background"></rect> <rect data-v-0dd9719b="" x="0" y="0" width="100%" height="100%" fill="url(#watermark)" fill-opacity="1" class="watermarklayer"></rect> <g data-v-0dd9719b="" fill="#333" class="icon-text-wrapper icon-svg-group iconsvg" transform="translate(47.18000030517578,95)"><g class="iconsvg-imagesvg" transform="translate(0,0)"><g><rect fill="#333" fill-opacity="0" stroke-width="2" x="0" y="0" width="60" height="60" class="image-rect"></rect> <svg x="0" y="0" width="60" height="60" filtersec="colorsb588146986" class="image-svg-svg primary" style="overflow: visible;"><svg xmlns="http://www.w3.org/2000/svg" viewBox="0 0 100 100"><path d="M53.46 98.92c8.29-1.68 14.63-10.08 18.45-19a88.77 88.77 0 0 1-18.45 2.45zM26.75 25.67a81.35 81.35 0 0 0-3.31 20.88h24.19V22.36a81.35 81.35 0 0 0-20.88 3.31zM47.63 0C39.34 1.68 33 10.08 29.17 19a89.64 89.64 0 0 1 18.46-2.45zm-30 46.55a90.24 90.24 0 0 1 2.45-18.46c-8.9 3.82-17.3 10.17-19 18.46zm60 5.82H53.46v24.19a81.65 81.65 0 0 0 20.87-3.3 81.5 81.5 0 0 0 3.31-20.89zM69 95.69A49.92 49.92 0 0 0 96.77 67.9 53.77 53.77 0 0 1 79 77.87a53.77 53.77 0 0 1-10 17.82zM32.11 3.23A49.89 49.89 0 0 0 4.32 31a53.57 53.57 0 0 1 17.82-10 53.57 53.57 0 0 1 9.97-17.77zM100 52.37H83.47A89.46 89.46 0 0 1 81 70.83c8.93-3.83 17.33-10.16 19-18.46z" fill="#3a46d6"></path><path d="M69 31h15.49v15.55H100V31H84.49V15.51H69V0H53.45v15.51H69V31H53.45v15.55H69zM31 69H15.52V53.45H0V69h15.52v15.49H31V100h15.55V84.49H31V69h15.55V53.45H31z" fill="#2ca6f1" fill-rule="evenodd"></path></svg></svg> <!----></g></g> <g transform="translate(67,1.1559371948242188)"><g data-gra="path-name" fill-rule="" class="tp-name iconsvg-namesvg" transform="translate(0,0)"><g transform="scale(1)"><g><path d="M42.45-23.47L42.45-23.47 24.87-23.47Q25.66-19.16 27.8-15.45 29.93-11.73 34.06-8.37 38.19-5.01 44.03-2.86L44.03-2.86 43.99-2.29Q38.98-1.27 38.19 4.31L38.19 4.31Q26.81-2.99 24.35-21.8L24.35-21.8Q23.86-18.33 23.03-15.49 22.19-12.66 20.5-9.71 18.81-6.77 16.37-4.39 13.93-2.02 10.15 0.24 6.37 2.5 1.45 4.31L1.45 4.31 1.1 3.74Q5.58 0.88 8.7-2.31 11.82-5.49 13.6-8.99 15.38-12.48 16.26-15.89 17.14-19.29 17.49-23.47L17.49-23.47 1.85-23.47 1.49-24.7 17.58-24.7Q17.84-28.96 17.84-38.23L17.84-38.23 26.76-37.44Q26.54-36.34 25.09-36.12L25.09-36.12Q24.92-27.69 24.65-24.7L24.65-24.7 33.35-24.7 37.09-29.44Q41.26-26.28 43.77-24.17L43.77-24.17Q43.59-23.47 42.45-23.47ZM63.46-29.22L59.02-29.22 58.67-30.45 63.9-30.45Q65.57-35.42 66.27-38.58L66.27-38.58 74.27-36.34Q73.87-35.29 72.29-35.38L72.29-35.38Q72.16-34.94 71.56-33.24 70.97-31.55 70.62-30.45L70.62-30.45 78.35-30.45 81.65-35.02Q85.39-31.95 87.54-29.93L87.54-29.93Q87.36-29.22 86.22-29.22L86.22-29.22 70.14-29.22Q69.87-28.52 68.62-24.9 67.37-21.27 66.8-19.78L66.8-19.78 70.49-19.78 70.49-27.11 78.53-26.41Q78.35-25.36 76.86-25.14L76.86-25.14 76.86-19.78 77.61-19.78 80.6-23.86Q83.98-21.05 85.91-19.2L85.91-19.2Q85.74-18.5 84.64-18.5L84.64-18.5 76.86-18.5 76.86-11.82 79.8-11.82 82.88-16.13Q86.4-13.23 88.46-11.29L88.46-11.29Q88.29-10.59 87.14-10.59L87.14-10.59 76.86-10.59 76.86-4Q76.86-3.78 76.07-3.41 75.28-3.03 74-2.72 72.73-2.42 71.59-2.42L71.59-2.42 70.49-2.42 70.49-10.59 58.58-10.59 58.23-11.82 70.49-11.82 70.49-18.5 66.62-18.5 64.29-15.78 58.45-19.38Q59.46-20.21 60.16-20.57L60.16-20.57Q61.52-23.6 63.46-29.22L63.46-29.22ZM47.68-37.22L47.68-37.22 48.12-37.44Q55.11-35.95 57.08-32.12L57.08-32.12Q58.32-29.79 57.08-27.91L57.08-27.91Q55.94-26.24 53.88-26.67L53.88-26.67Q53-26.89 52.16-27.51L52.16-27.51Q51.37-31.99 47.68-37.22ZM56.95-19.64L56.95-19.64 56.95-5.76Q59.5-3.52 63.59-2.66 67.68-1.8 75.15-1.8 82.62-1.8 89.3-2.15L89.3-2.15 89.3-1.67Q87.58-1.27 86.53 0.18 85.47 1.63 85.25 3.56L85.25 3.56 73.17 3.56Q66.18 3.56 62.51 1.78 58.84 0 56.03-4.31L56.03-4.31Q55.2-5.67 54.36-4.31L54.36-4.31Q54.01-3.65 52.45-0.94 50.89 1.76 50.14 3.25L50.14 3.25Q50.27 3.87 49.61 4.26L49.61 4.26 45.66-1.85Q47.24-2.59 50.84-4.83L50.84-4.83 50.84-20.48 46.41-20.48 46.14-21.8 50.14-21.8 53.09-25.71 59.37-20.7Q58.67-19.95 56.95-19.64ZM110.35-11.95L110.35-11.95 110.79-12.13Q116.46-9.14 117.38-5.01L117.38-5.01Q117.95-2.29 116.32-0.7L116.32-0.7Q114.74 0.88 112.68-0.26L112.68-0.26Q111.97-0.62 111.31-1.36L111.31-1.36Q111.8-6.15 110.35-11.95ZM122.26-14.46L124.94-14.46 127.92-18.19Q131.31-15.64 133.37-13.89L133.37-13.89Q133.2-13.18 132.1-13.18L132.1-13.18 106.26-13.18 105.86-14.46 116.1-14.46 116.1-20.57 123.53-20Q123.44-19.12 122.26-18.94L122.26-18.94 122.26-14.46ZM124.23-29.36L124.23-34.28 114.21-34.28 114.21-29.36 124.23-29.36ZM114.21-28.08L114.21-23.16 124.23-23.16 124.23-28.08 114.21-28.08ZM108.98-18.94L108.11-18.94 108.11-26.28Q107.84-26.28 107.75-26.32L107.75-26.32Q104.94-23.12 101.69-20.39L101.69-20.39Q101.47-15.21 100.94-11.73L100.94-11.73Q106.83-9.8 108.06-6.28L108.06-6.28Q108.85-3.96 107.4-2.42L107.4-2.42Q105.95-0.92 103.89-1.85L103.89-1.85Q103.27-2.15 102.66-2.68L102.66-2.68Q102.48-6.46 100.72-10.42L100.72-10.42Q99.76-5.58 97.62-2 95.49 1.58 91.63 4.26L91.63 4.26 91.14 3.65Q93.87-0.48 94.92-5.84 95.98-11.21 96.06-19.16L96.06-19.16Q95.8-17.58 94.79-16.57L94.79-16.57Q93.3-15.21 91.85-16.04L91.85-16.04Q90.48-16.79 90.79-18.46L90.79-18.46Q91.01-19.6 92.02-20.61L92.02-20.61Q92.81-21.53 93.21-23.82 93.6-26.1 93.34-28.83L93.34-28.83 93.91-28.87Q95.71-25.18 96.11-22.02L96.11-22.02Q96.11-24.3 96.06-29.79 96.02-35.29 96.02-38.54L96.02-38.54 103.49-37.84Q103.27-36.78 101.82-36.52L101.82-36.52Q101.82-34.94 101.8-30.12 101.78-25.31 101.73-22.98L101.73-22.98Q103.01-27.51 103.54-30.45L103.54-30.45 108.11-27.69 108.11-38.01 114.48-35.55 123.79-35.55 126.52-38.58 132.28-34.23Q131.75-33.53 130.47-33.31L130.47-33.31 130.47-21.09Q130.43-20.87 129.62-20.48 128.8-20.08 127.55-19.75 126.3-19.42 125.33-19.42L125.33-19.42 124.23-19.42 124.23-21.93 114.21-21.93 114.21-20.83Q114.21-20.57 113.44-20.13 112.68-19.69 111.42-19.31 110.17-18.94 108.98-18.94L108.98-18.94ZM121.07 1.45L125.29 1.45 128.58-2.68Q132.28 0.09 134.47 1.98L134.47 1.98Q134.3 2.68 133.15 2.68L133.15 2.68 104.11 2.68 103.71 1.45 120.23 1.45Q121.38-5.45 121.95-12.57L121.95-12.57 129.99-10.37Q129.68-9.4 128.23-9.4L128.23-9.4Q124.67-3.12 121.07 1.45L121.07 1.45ZM144.62-21.31L147.52-24.43 152.84-20Q152.53-19.38 151.17-19.16L151.17-19.16Q150.12-11.21 147.08-5.84L147.08-5.84Q149.9-3.82 154.07-3.1 158.25-2.37 164.97-2.37L164.97-2.37Q175.52-2.37 179.03-2.46L179.03-2.46 179.03-1.98Q177.45-1.58 176.59-0.15 175.74 1.27 175.65 3.21L175.65 3.21 164.66 3.21Q157.19 3.21 152.64 1.87 148.1 0.53 145.28-3.08L145.28-3.08Q141.81 1.58 136.14 4.39L136.14 4.39 135.75 3.91Q140.36-0.18 142.78-7.38L142.78-7.38Q141.55-10.37 140.71-14.19L140.71-14.19Q139.57-11.47 138.6-9.49L138.6-9.49Q139.04-8.83 138.43-8.39L138.43-8.39 135.62-11.87Q137.99-13.27 140.14-15.16L140.14-15.16 140.32-17.14 142.25-16.57 141.02-14.94Q142.12-11.73 143.48-9.71L143.48-9.71Q144.58-14.06 145.02-20.08L145.02-20.08 143.7-20.08 142.82-18.24Q140.41-17.53 137.11-18.68L137.11-18.68Q140.23-25.84 142.78-33.22L142.78-33.22 136.93-33.22 136.54-34.45 142.69-34.45 145.24-37.4 150.73-32.92Q150.12-32.21 148.71-32.04L148.71-32.04Q146.82-27.16 144.23-21.31L144.23-21.31 144.62-21.31ZM164.71-21.84L167.56-21.84 167.56-26.37 164.71-26.37 164.71-21.84ZM164.71-16L168.27-16 170.64-19.2Q169.58-18.94 168.57-18.94L168.57-18.94 167.56-18.94 167.56-20.57 164.71-20.57 164.71-16ZM167.56-32.08L164.71-32.08 164.71-27.64 167.56-27.64 167.56-32.08ZM173.5-31.2L173.5-27.64 175.78-31.55Q178.37-28.78 179.74-27.07L179.74-27.07Q179.6-26.37 178.55-26.37L178.55-26.37 173.5-26.37 173.5-20.3Q173.41-19.95 171.52-19.42L171.52-19.42Q174.46-17.14 176.26-15.42L176.26-15.42Q176.13-14.72 174.99-14.72L174.99-14.72 164.71-14.72 164.71-10.02 168.31-10.02 171.52-14.15Q175.21-11.38 177.41-9.49L177.41-9.49Q177.23-8.79 176.09-8.79L176.09-8.79 164.71-8.79 164.71-4.48Q164.71-4.26 163.98-3.91 163.26-3.56 162.05-3.27 160.84-2.99 159.74-2.99L159.74-2.99 158.55-2.99 158.55-8.79 150.25-8.79 149.9-10.02 158.55-10.02 158.55-14.72 151.88-14.72 151.52-16 158.55-16 158.55-20.57 152.18-20.57 151.79-21.84 158.55-21.84 158.55-26.37 149.55-26.37 149.19-27.64 158.55-27.64 158.55-32.08 152.18-32.08 151.79-33.35 158.55-33.35 158.55-38.41 166.38-37.71Q166.25-36.61 164.71-36.39L164.71-36.39 164.71-33.35 167.12-33.35 169.76-36.17 175.17-32.08Q174.59-31.42 173.5-31.2L173.5-31.2Z" transform="translate(-1.100000023841858, 38.58000183105469)"></path></g> <!----> <!----> <!----> <!----> <!----> <!----> <!----></g></g> <g data-gra="path-slogan" fill-rule="" class="tp-slogan iconsvg-slogansvg" fill="#333" transform="translate(45.72500228881836,48.970001220703125)"><!----> <!----> <g transform="scale(1, 1)"><g transform="scale(1)"><path d="M4.41 0L0.94 0L0.94-8.58L4.45-8.58Q7.92-8.39 8.06-4.41L8.06-4.41Q7.88-0.09 4.41 0L4.41 0ZM4.27-7.64L2.11-7.64L2.11-0.98L4.36-0.98Q6.80-1.13 6.89-4.31L6.89-4.31Q6.84-7.55 4.27-7.64L4.27-7.64ZM15.19 0L14.34-2.48L10.88-2.48L9.98 0L8.81 0L12.05-8.58L13.36-8.58L16.45 0L15.19 0ZM12.61-7.31L11.25-3.52L13.92-3.52L12.66-7.31L12.61-7.31ZM17.48-8.58L18.66-8.58L18.66-1.03L23.02-1.03L23.02 0L17.48 0L17.48-8.58ZM24.33-8.58L25.50-8.58L25.50 0L24.33 0L24.33-8.58ZM33.14 0L32.30-2.48L28.83-2.48L27.94 0L26.77 0L30-8.58L31.31-8.58L34.41 0L33.14 0ZM30.56-7.31L29.20-3.52L31.88-3.52L30.61-7.31L30.56-7.31ZM36.84-8.58L41.16-1.64L41.16-8.58L42.28-8.58L42.28 0L40.97 0L36.61-6.94L36.56-6.94L36.56 0L35.44 0L35.44-8.58L36.84-8.58ZM54.33-8.58L51.09-3.47L51.09 0L49.92 0L49.92-3.47L46.69-8.58L48.05-8.58L50.48-4.45L52.97-8.58L54.33-8.58ZM61.03-3.19L61.03-8.58L62.20-8.58L62.20-3.05Q62.06 0.05 58.69 0.14L58.69 0.14Q55.55 0.05 55.41-2.86L55.41-2.86L55.41-8.58L56.58-8.58L56.58-3.19Q56.63-0.84 58.73-0.80L58.73-0.80Q61.03-0.84 61.03-3.19L61.03-3.19ZM63.28-1.92L63.28-2.77L64.36-2.77L64.36-2.16Q64.36-0.75 65.67-0.75L65.67-0.75Q67.03-0.75 67.03-2.25L67.03-2.25L67.03-8.58L68.20-8.58L68.20-2.30Q68.16 0.09 65.72 0.14L65.72 0.14Q63.42 0.09 63.28-1.92L63.28-1.92ZM70.17-8.58L71.34-8.58L71.34 0L70.17 0L70.17-8.58ZM78.98 0L78.14-2.48L74.67-2.48L73.78 0L72.61 0L75.84-8.58L77.16-8.58L80.25 0L78.98 0ZM76.41-7.31L75.05-3.52L77.72-3.52L76.45-7.31L76.41-7.31ZM82.69-8.58L87-1.64L87-8.58L88.13-8.58L88.13 0L86.81 0L82.45-6.94L82.41-6.94L82.41 0L81.28 0L81.28-8.58L82.69-8.58Z" transform="translate(-0.9375, 8.578125)"></path></g></g></g></g></g></svg>